<svg xmlns="http://www.w3.org/2000/svg" width="200" height="200" fill="none"><circle cx="100" cy="100" r="100" fill="#8CBAE6"/><mask id="a" fill="#fff"><path fill-rule="evenodd" d="M78.333 46.667a5 5 0 0 0-10 0V55h-1.666A11.667 11.667 0 0 0 55 66.667v1.666h-8.333a5 5 0 0 0 0 10H55V95h-8.333a5 5 0 0 0 0 10H55v16.667h-8.333a4.998 4.998 0 0 0-3.536 8.535 5 5 0 0 0 3.536 1.465H55v1.666C55 139.773 60.227 145 66.667 145h1.666v8.333a5.002 5.002 0 0 0 8.536 3.536 5 5 0 0 0 1.464-3.536V145H95v8.333a5 5 0 0 0 5 5 4.996 4.996 0 0 0 5-5V145h16.667v8.333a5 5 0 1 0 10 0V145h1.666A11.67 11.67 0 0 0 145 133.333v-1.666h8.333a5.001 5.001 0 0 0 0-10H145V105h8.333a5.001 5.001 0 0 0 0-10H145V78.333h8.333a5.002 5.002 0 0 0 3.536-8.535 5 5 0 0 0-3.536-1.465H145v-1.666A11.666 11.666 0 0 0 133.333 55h-1.666v-8.333a5 5 0 0 0-10 0V55H105v-8.333a5 5 0 0 0-10 0V55H78.333zM65 66.667A1.667 1.667 0 0 1 66.667 65h66.666A1.67 1.67 0 0 1 135 66.667v66.666c0 .442-.176.866-.488 1.179a1.67 1.67 0 0 1-1.179.488H66.667A1.67 1.67 0 0 1 65 133.333zm33.66 51.686-1.833-5.146H83.313l-1.833 5.146a5 5 0 1 1-9.42-3.36l11.333-31.8.02-.06.027-.066c1.013-2.614 3.44-4.74 6.627-4.74 3.193 0 5.613 2.126 6.633 4.746l.02.06.027.067L108.08 115a4.998 4.998 0 0 1-6.847 6.143 5 5 0 0 1-2.573-2.79m-8.593-24.1 3.193 8.954h-6.387zM115 83.32a5.003 5.003 0 0 1 5-5 5 5 0 0 1 5 5v33.353a5.001 5.001 0 0 1-10 0z" clip-rule="evenodd"/></mask><path fill="#fff" fill-rule="evenodd" stroke="#8CBAE6" stroke-width="4" d="M78.333 46.667a5 5 0 0 0-10 0V55h-1.666A11.667 11.667 0 0 0 55 66.667v1.666h-8.333a5 5 0 0 0 0 10H55V95h-8.333a5 5 0 0 0 0 10H55v16.667h-8.333a4.998 4.998 0 0 0-3.536 8.535 5 5 0 0 0 3.536 1.465H55v1.666C55 139.773 60.227 145 66.667 145h1.666v8.333a5.002 5.002 0 0 0 8.536 3.536 5 5 0 0 0 1.464-3.536V145H95v8.333a5 5 0 0 0 5 5 4.996 4.996 0 0 0 5-5V145h16.667v8.333a5 5 0 1 0 10 0V145h1.666A11.67 11.67 0 0 0 145 133.333v-1.666h8.333a5.001 5.001 0 0 0 0-10H145V105h8.333a5.001 5.001 0 0 0 0-10H145V78.333h8.333a5.002 5.002 0 0 0 3.536-8.535 5 5 0 0 0-3.536-1.465H145v-1.666A11.666 11.666 0 0 0 133.333 55h-1.666v-8.333a5 5 0 0 0-10 0V55H105v-8.333a5 5 0 0 0-10 0V55H78.333zM65 66.667A1.667 1.667 0 0 1 66.667 65h66.666A1.67 1.67 0 0 1 135 66.667v66.666c0 .442-.176.866-.488 1.179a1.67 1.67 0 0 1-1.179.488H66.667A1.67 1.67 0 0 1 65 133.333zm33.66 51.686-1.833-5.146H83.313l-1.833 5.146a5 5 0 1 1-9.42-3.36l11.333-31.8.02-.06.027-.066c1.013-2.614 3.44-4.74 6.627-4.74 3.193 0 5.613 2.126 6.633 4.746l.02.06.027.067L108.08 115a4.998 4.998 0 0 1-6.847 6.143 5 5 0 0 1-2.573-2.79Zm-8.593-24.1 3.193 8.954h-6.387zM115 83.32a5.003 5.003 0 0 1 5-5 5 5 0 0 1 5 5v33.353a5.001 5.001 0 0 1-10 0z" clip-rule="evenodd" mask="url(#a)"/></svg>