<svg xmlns="http://www.w3.org/2000/svg" width="156" height="156" fill="none"><path stroke="#011332" stroke-linecap="round" stroke-linejoin="round" stroke-width="5" d="M17.992 111.764a22.505 22.505 0 0 0 22.503 22.503 18.754 18.754 0 0 0 32.012 13.261A18.75 18.75 0 0 0 78 134.267a18.754 18.754 0 0 0 32.013 13.261 18.76 18.76 0 0 0 5.492-13.261 22.5 22.5 0 0 0 22.502-22.848 22.5 22.5 0 0 0-3.247-11.304A22.51 22.51 0 0 0 153 78.014a22.51 22.51 0 0 0-18.24-22.102 22.51 22.51 0 0 0 .355-22.706 22.51 22.51 0 0 0-19.61-11.454A18.755 18.755 0 0 0 96.753 3 18.75 18.75 0 0 0 78 21.753a18.752 18.752 0 1 0-37.505 0A22.503 22.503 0 0 0 21.24 55.905a22.51 22.51 0 0 0 0 44.203 22.5 22.5 0 0 0-3.248 11.656"/><path stroke="#011332" stroke-linecap="round" stroke-linejoin="round" stroke-width="5" d="m44.246 96.763 13.817-41.451a5.206 5.206 0 0 1 9.871 0l13.817 41.45m22.503-45.005v45.006M51.747 81.76H74.25"/></svg>