<svg xmlns="http://www.w3.org/2000/svg" width="214" height="319" fill="none"><g clip-path="url(#a)"><path fill="#fff" d="M113.803 8.287c-4.33.665-6.153 2.374-7.698 3.538l-.008.007-.009.006c-11.553 8.986-15.905 20.071-16.9 30.666-.948 10.1 1.052 19.724 2.5 27.078-5.4 2.434-8.595 5.355-11.511 9.87 7.796.136 17.828.608 24.082-2.332 5.195 3.846 16.905 2.903 19.647 1.987-2.344-1.885-4.835-3.579-8.427-3.831-.263-1.568-.443-3.339-.343-4.727 3.983-15.673 9.125-30.262 4.756-49.325 4.334-1.392 12.273-3.937 13.931-5.54-3.137-2.35-14.076-8.159-20.02-7.397m9.485 5.712.136 2.18c-3.736 2.115-5.373 2.825-9.314 3.84-1.423-2.51-3.455-4.699-5.213-6.805 5.395-3.037 8.329-2.499 14.391.785m-11.317 8.066c-.155 2.91-1.09 5.833-1.718 8.42-1.248-1.731-3.231-2.662-5.191-2.59a5.6 5.6 0 0 0-2.126.502c-1.36.62-2.505 1.861-3.068 3.554-.562 1.693-.583 3.804.062 6.343.996 3.92.984 10.814 1.206 16.672.112 2.93.282 5.606.752 7.703.236 1.048.532 1.96 1.059 2.74s1.473 1.449 2.528 1.445h.052l.052-.004q.266-.02.529-.062c-.408 3.376 2.018 6.595 1.915 9.502-1.538-.788-2.194-1.557-3.446-2.519-5.893 3.39-13.135 2.94-18.79 2.774 3.2-2.678 5.724-3.926 9.11-5.199-2.314-10.356-3.61-20.1-2.909-28.579.909-9.677 4.492-19.519 14.583-27.844 3.135.837 5.442 6.347 5.4 7.142m-3.78 10.401c2.834 5.01 4.148 13.09 3.563 19.803-.292 3.357-1.058 6.373-2.193 8.464-.655.964-3.476 4.295-4.283 3.1-.195-.287-.452-.92-.645-1.78-.387-1.722-.577-4.316-.686-7.194-.219-5.755-.112-12.617-1.291-17.257-.549-2.162-.464-3.726-.119-4.764.954-2.847 4.412-2.322 5.654-.372m22.785 204.447h-10.874s-.588 6.248 4.118 6.75c4.705.501 3.309 7.296 3.309 7.296h11.703v-14.046z"/><path fill="#000" d="M61.666 276.335s2.624-1.29 1.102-3.106a1.57 1.57 0 0 0-1.371-.781 1.58 1.58 0 0 0-1.36.8s-1.75.597 1.63 3.087"/><path fill="#fff" d="M139.232 242.201s-10.546-.703-8.01-6.748h14.931s3.924 0 3.146 9.326c0 0 2.732 25.332-.794 26.654l4.556-2.889a1.544 1.544 0 0 1 2.356 1.354v1.235c-.74 2.805-15.038 14.972-26.95 14.972a24.9 24.9 0 0 1-7.803-1.233s-.07-.017-.175-.054c-1.147-.291-7.29-1.905-8.753-2.051-1.625-.143-28.116.955-28.116.955-3.749.061-4.455 1.281-6.972.571-6.523-1.845-18.23-8.625-16.611-11.044 1.722-2.574 3.31-7.407 16.857-2.092h.07c.478 0 3.46-.327 10.82-7.51a.1.1 0 0 1 .017-.037c4.82-4.699 19.226-23.735 20.546-24.782 1.319-1.048 9.345-3.374 8.241 4.807a61 61 0 0 0-4.624.655l-.185 5.316c8.093-2.198 19.066 1.677 19.066 1.677"/><path fill="#fff" d="M87.123 263.722c.21-.853 5.226-19.239-.018-19.975s-6.053-1.849-5.913-5.55h13.979l6.652 6.132s-5.973 15.636-14.7 19.393"/><path stroke="#011332" stroke-linecap="round" stroke-linejoin="round" stroke-width=".5" d="M111.964 244.287s2.161-.407 4.624-.653c1.102-8.181-6.924-5.856-8.242-4.808-1.317 1.048-15.726 20.084-20.545 24.783a.06.06 0 0 0-.016.036c-7.361 7.183-10.343 7.51-10.82 7.51h-.071c-13.548-5.315-15.135-.482-16.857 2.093-1.618 2.418 10.088 9.198 16.611 11.041 2.517.713 3.225-.509 6.972-.568 0 0 26.491-1.101 28.114-.955 1.465.145 7.608 1.76 8.755 2.051.105.036.175.054.175.054a25 25 0 0 0 7.803 1.233c11.912 0 26.21-12.168 26.95-14.972v-1.235a1.54 1.54 0 0 0-1.57-1.584 1.54 1.54 0 0 0-.788.231l-4.555 2.891"/><path stroke="#011332" stroke-linecap="round" stroke-linejoin="round" stroke-width=".5" d="M87.802 263.609c.212-.853 5.227-19.239-.017-19.975-5.243-.737-6.053-1.85-5.912-5.551H95.85l6.654 6.132m28.341-7.302h-10.874s-.589 5.644 4.118 6.098 3.309 6.593 3.309 6.593a32 32 0 0 0-15.619 0m27.453-7.403s-11.558 10.146-12.495 17.515"/><path stroke="#011332" stroke-linecap="round" stroke-linejoin="round" stroke-width=".5" d="M139.232 242.201s-10.547-.703-8.01-6.748h14.931s3.691.169 2.236 9.353c0 0 5.632 14.575 2.233 25.307m-73.187 11.135s3.677.607 2.206-4.913"/><path fill="#fff" d="M160.034 106.034a74.997 74.997 0 0 0-106.066-.002l3.836 3.836a69.57 69.57 0 0 1 75.823-15.08 69.6 69.6 0 0 1 22.571 15.082zM54.03 212.162a75 75 0 0 0 106.066.006l-3.835-3.836a69.58 69.58 0 0 1-75.824 15.078 69.6 69.6 0 0 1-22.571-15.084z"/></g><defs><clipPath id="a"><path fill="#fff" d="M.934 0h212.198v318.2H.934z"/></clipPath></defs></svg>